<svg xmlns="http://www.w3.org/2000/svg" viewBox="0 0 500 530"><style type="text/css">  
	.beerFill{fill:#F9B53D;}
	.st0{fill:none;stroke:#000000;stroke-width:10.5726;stroke-linecap:round;stroke-linejoin:round;stroke-miterlimit:10;}
	.st1{fill:none;stroke:#000000;stroke-width:7.4008;stroke-linecap:round;stroke-linejoin:round;stroke-miterlimit:10;}
	.st2{stroke:#FFFFFF;stroke-width:3.1718;stroke-miterlimit:10;}
	.st3{fill:#FFFFFF;}
</style><g id="stein"><rect x="37" y="85.3" class="beerFill" width="426" height="426"/><path class="st3" d="M0 0v530h500V0H0zM340.8 497.9c-68.6 26-175.8 5.3-175.8 5.3 -52-145.5-33.4-230.9-33.4-230.9 0.4-7.9 5.4-8.1 5.4-8.1s3.8-1 10.7-2.4c0 7.7 0.2 15.5 0.6 23.1 0.9 18.3 2.6 36.5 4.9 54.6 1.2 9 2.5 18 4 27 1.5 9 3.1 17.9 4.8 26.8 1.8 8.9 3.6 17.7 5.7 26.6l7.9 26 -4.6-26.6c-0.9-8.9-1.7-17.9-2.3-26.8 -0.6-9-1.2-17.9-1.5-26.9 -0.4-9-0.6-17.9-0.7-26.8 -0.1-17.9 0.4-35.7 1.7-53.4 0.7-9.2 1.6-18.4 2.9-27.4 41.2-6.1 115.5-11.8 197.6 6.4 0 0 5 0.3 5.4 8.1C374.1 272.3 392.9 352.4 340.8 497.9z"/><path d="M493 325.9c-0.7-18.7-7.5-34.1-20.2-45.8 -17.5-16.1-46.4-24.7-79.9-23.9 -1.2-27.9-3.9-45.4-4.2-47.7 -0.6-9.3-6.2-12.3-9.6-12.7 -71.6-15.8-136.5-15-178.4-11.5 -43.4 3.6-71 10.6-74.5 11.5 -3.3 0.4-8.9 3.5-9.5 12.7 -0.5 3.2-5.7 40-4.4 94.4 1.3 52.3 9.1 132.2 39 215.7 0.5 1.4 1.7 2.5 3.2 2.7 0.3 0.1 30.7 5.8 69.9 7.9 10 0.5 19.6 0.8 28.9 0.8 39.8 0 73-4.9 99-14.8 1.2-0.4 2.1-1.4 2.5-2.5 6.3-17.6 11.6-35 16.1-51.9 8.1-1.9 40-10 58.3-22.4C463.6 415 495.2 385.2 493 325.9zM347.3 508c-21.6 7.9-59.9 16.1-122.4 12.8 -32.4-1.7-58.7-6-66.5-7.3 -28.8-81.5-36.4-159.3-37.7-210.5 -1.4-56 4.3-93 4.3-93.3 0-0.1 0-0.3 0.1-0.4 0.2-3.3 1.2-4.7 2.1-4.9 0.4 0 0.4 0 0.8-0.1 1.1-0.3 114.3-29.9 249.5 0 0.4 0.1 0.3 0.1 0.6 0.1 0.9 0.3 1.9 1.7 2.1 5 0 0.2 0 0.3 0.1 0.5 0 0.3 3.2 19.6 4.4 51.4v38.6c0 0.5 0.1 0.9 0.2 1.3C383.6 350.9 376.1 426.8 347.3 508zM393.3 299.9c0-0.2 0-0.3 0-0.5 2.4-2.8 15.5-6.2 22.1-6.6 21.7-1.3 40.3 15.4 43.2 38.7 3.7 29.6-22.7 59.5-48.7 74.8 -10.9 6.4-20.8 10.4-29.4 12C389.5 372 392.6 330.9 393.3 299.9zM469 388.9c-9.6 14.9-23.3 28-44.7 42.5 -14.4 9.8-39 16.9-50.7 20l5.6-24.3c10.4-1.4 21.9-5.8 35-13.5 14.7-8.6 28.5-21 38-34.1 11.7-16.2 16.9-33.1 14.9-49 -1.6-12.9-7.6-24.8-16.9-33.4 -9.7-8.9-22.2-13.5-35.2-12.7 -0.2 0-12.5 1.1-21.4 5.2 0.1-8.9 0-17.2-0.3-24.9 31.2-0.7 58 7.1 73.8 21.7 11 10.1 16.9 23.6 17.5 39.9C485.4 350.7 480.4 371.2 469 388.9z"/></g></svg>