<svg xmlns="http://www.w3.org/2000/svg" viewBox="0 0 500 530"><style type="text/css">
	.beerFill{fill:#F9B53D;}
	.st0{fill:none;stroke:#000000;stroke-width:10.5726;stroke-linecap:round;stroke-linejoin:round;stroke-miterlimit:10;}
	.st1{fill:none;stroke:#000000;stroke-width:7.4008;stroke-linecap:round;stroke-linejoin:round;stroke-miterlimit:10;}
	.st2{stroke:#FFFFFF;stroke-width:3.1718;stroke-miterlimit:10;}
	.st3{fill:#FFFFFF;}
</style><g id="goblet"><rect x="37" y="85.3" class="beerFill" width="426" height="426"/><path class="st3" d="M0 0v530h500V0H0zM297 411.5c-13 5.3-23 7.6-36.9 9.2 -14.3 1.7-15.5 1.6-29.6-0.8 -23.6-3.9-42.8-14.2-58.4-32.7l10.6-248.2h17.6l8.5 133.9 12.7-133.9h97.7l10.6 248.3 0.1 0.2C321.1 397.9 309.7 406.3 297 411.5z"/><path d="M346.7 506.2c-41.9-7.5-60.2-20.5-68.2-30.1 -8.2-9.9-7.2-18-7.2-18.2 0-0.2 0.1-0.5 0.1-0.7v-20.3c12.1-1.9 23.3-4.6 36.6-10.1 15.9-6.5 30.1-17 41.1-30.2 0.9-1 1.2-2.4 0.9-3.7L338.2 71.1c-0.1-2.3-2-4.1-4.2-4.1H166.1c-2.3 0-4.2 1.8-4.2 4.1l-11.8 322.4c0 1.1 0.3 2.1 1 2.9 17.8 21 45.3 35.5 77.6 40.8v20c0 0.2 0 0.4 0.1 0.6 0.1 0.3 1.1 8.4-7.2 18.3 -8 9.6-26.3 22.6-68.2 30.1 -4.9 0.9-8.4 5.2-8.4 10.2 0 5 4 9 8.9 9.2 30.8 3.4 62.5 4.5 91 4.5 54.9 0 98.2-4.1 101.5-4.5 5-0.1 8.9-4.2 8.9-9.2C355.2 511.3 351.6 507.1 346.7 506.2zM158.6 392.1l11.6-316.6h159.7l11.6 317c-9.9 11.6-22.6 20.7-36.7 26.5 -15.9 6.5-28.7 9-44.1 10.8l-1.4 0.2c-3.9 0.5-6.7 0.8-8.9 1h-7.1c-2.1-0.2-4.5-0.6-8.2-1.2 -1.4-0.2-3-0.5-4.9-0.8C200.5 423.9 175.1 410.9 158.6 392.1zM346 517.1c-0.1 0-0.3 0-0.4 0 -1 0.1-99.8 10-191.1 0 -0.1 0-0.3 0-0.5 0 -0.4 0-0.7-0.3-0.7-0.7 0-0.9 0.6-1.7 1.4-1.8 3-0.5 5.9-1.1 8.8-1.7 11.5 0.7 22.8 1 34.2 1.2 11.6 0.2 23.1 0.3 34.6 0.1 5.8 0 11.5-0.2 17.3-0.3 5.8-0.2 11.5-0.3 17.3-0.6 11.5-0.4 23-1.2 34.5-2.1 -11.5 0.2-23 0.2-34.5 0 -5.7-0.1-11.5-0.3-17.2-0.4 -5.7-0.2-11.5-0.4-17.2-0.7 -11.5-0.6-22.9-1.3-34.4-2.2 -3.9-0.3-7.8-0.7-11.7-1 52.5-17.6 51.2-45.8 50.7-49.8v-17.5h5.5c1.3 0.1 2.5 0.2 3.8 0.2 1.3 0 2.6-0.1 4.2-0.2h12.3v17.5c-0.5 4.7-2.2 42.5 82.4 57.7 0.8 0.2 1.4 0.9 1.4 1.8C346.7 516.7 346.4 517.1 346 517.1z"/></g></svg>
