<svg xmlns="http://www.w3.org/2000/svg" viewBox="0 0 500 530"><style type="text/css">  
	.beerFill{fill:#F9B53D;}
	.st0{fill:none;stroke:#000000;stroke-width:10.5726;stroke-linecap:round;stroke-linejoin:round;stroke-miterlimit:10;}
	.st1{fill:none;stroke:#000000;stroke-width:7.4008;stroke-linecap:round;stroke-linejoin:round;stroke-miterlimit:10;}
	.st2{stroke:#FFFFFF;stroke-width:3.1718;stroke-miterlimit:10;}
	.st3{fill:#FFFFFF;}
</style><g id="pilsner"><rect x="37" y="85.3" class="beerFill" width="426" height="426"/><path class="st3" d="M0 0v530h500V0H0zM327 265.7c-12.9 51.1-12.9 143.4-11.3 176.7 0.3 5.7-3.9 10.6-9.7 11.4 -21.3 3.1-39 4.7-60 4.7 0 0 0 0 0 0 -23.5 0-38.9-2-52.2-4 -5.7-0.9-9.8-5.7-9.6-11.4 1.6-33.4 1.7-126-11.3-177.4 -13.8-54.6-20.7-126.3-22.4-175.2 4.7-0.4 10.8-0.9 18.2-1.3 -0.1 16 0.5 31.9 1.5 47.7 1.4 21.9 3.7 43.6 6.6 65.1 1.5 10.8 3 21.5 4.8 32.3 1.7 10.7 3.6 21.4 5.6 32.1 2 10.7 4.2 21.2 6.5 31.9l8.7 31.3 -5.4-31.9c-1.2-10.7-2.2-21.5-3.2-32.2 -0.9-10.7-1.7-21.5-2.3-32.3 -0.7-10.7-1.1-21.5-1.5-32.2 -0.7-21.5-0.7-43 0.1-64.3 0.6-16.4 1.8-32.7 3.6-48.8 37.5-1.7 92.1-2.4 155.9 2.6C347.8 139.2 340.8 211.1 327 265.7z"/><path d="M250.9 530c-33.5 0-61.1-5.1-78.2-9.3 -9.2-2.3-14.9-11.3-13.1-20.6 1.7-8.2 4-21.6 5.5-38.9 0.1-1.2 0.8-2.3 1.8-3.1 1-0.7 2.3-1 3.5-0.7 16.6 4 77.1 15.9 159.3 0.1 1.2-0.2 2.4 0.1 3.4 0.8 1 0.7 1.6 1.8 1.7 3 1.6 17.3 3.9 30.8 5.5 39 1.9 9.3-3.9 18.4-13.2 20.6C299.8 527.6 274 530 250.9 530zM173.2 466.8c-1.6 15.4-3.7 27.4-5.2 35 -1 4.8 2 9.5 6.8 10.7 28.1 7 85 16.2 150.3 0.2 4.8-1.2 7.9-5.9 6.9-10.7 -1.5-7.7-3.7-19.8-5.2-35.3C251.7 480.4 194.8 471.5 173.2 466.8zM246 473.4c-39.4 0-66.8-5.5-77.1-8 -2-0.5-3.4-2.4-3.2-4.5 3.5-38.8 2.6-136.9-11.5-194.3 -12.1-49-19-102.6-21-163.9 -1.2-36.2-0.6-66.2-0.3-77.4 0.3-9.1 7.3-16.5 16.4-17.1 99.3-7 174.3-2.5 202-0.2 9 0.7 15.9 8.1 16.2 17.1 0.3 11.3 0.9 41.4-0.3 77.8 0 0 0 0 0 0 -2.1 61.3-9 114.9-21 163.9 -14.1 57.3-15 155.3-11.5 194 0.2 2.2-1.3 4.1-3.4 4.6C298.9 471.3 270.2 473.4 246 473.4zM174.4 457.9c19.9 4.4 75.7 13.5 151.2-0.4 -3-39.6-2.5-134 12.1-193 11.9-48.4 18.7-101.4 20.8-162.1 1.2-36.1 0.6-66 0.3-77.2 -0.1-4.7-3.7-8.5-8.4-8.8 -27.5-2.2-102-6.7-200.7 0.2 -4.7 0.3-8.4 4.2-8.5 8.9 -0.3 11.2-0.9 41 0.3 76.9 2.1 60.7 8.9 113.8 20.8 162.2C176.9 323.7 177.4 418.4 174.4 457.9zM362.7 102.5L362.7 102.5 362.7 102.5zM323.4 507.5c2-0.5 3.3-2.4 2.9-4.4 -1.1-5.2-2.4-11.6-3.6-20.6 -0.6-4.6-4.9-7.9-9.5-7.2 -22.5 3.4-45 4.2-67.1 4.2 -24.9 0-45.1-1.3-59.3-3.5 -4.6-0.7-9 2.5-9.6 7.2 -0.7 5-1.4 8.5-2.1 12.4 -1.1 6.5 3.1 12.6 9.5 14 14.5 3.1 37.6 6.7 65.3 6.7C275 516.2 299.7 513.3 323.4 507.5z"/></g></svg>