<svg xmlns="http://www.w3.org/2000/svg" viewBox="0 0 500 530"><style type="text/css">  
	.beerFill{fill:#F9B53D;}
	.st0{fill:none;stroke:#000000;stroke-width:10.5726;stroke-linecap:round;stroke-linejoin:round;stroke-miterlimit:10;}
	.st1{fill:none;stroke:#000000;stroke-width:7.4008;stroke-linecap:round;stroke-linejoin:round;stroke-miterlimit:10;}
	.st2{stroke:#FFFFFF;stroke-width:3.1718;stroke-miterlimit:10;}
	.st3{fill:#FFFFFF;}
</style><g id="tulip"><rect x="37" y="85.3" class="beerFill" width="426" height="426"/><path class="st3" d="M0 0v530h500V0H0zM351.2 356.1c-13.9 21.7-37.3 35.3-69.5 40.5 -0.5 0.1-1.1 0.2-1.6 0.4 0 0-10.1 2.6-27.5 2.6 0 0 0 0 0 0 -10.9 0-22.4-1-34.1-2.9 -32.3-5.2-55.7-18.9-69.6-40.5 -17.9-27.9-20-69.1-6.1-119.2 6.3-22.8 10.7-42.9 13.8-60.5 3.7 0.2 8.1 0.4 13 0.7 -0.3 2.5-0.6 5-0.9 7.5 -1.3 9.8-3.1 19.6-5.5 29.2 -0.6 2.4-1.2 4.8-1.9 7.2 -0.6 2.4-1.4 4.7-2.1 7.1l-2.4 7.5c-0.8 2.6-1.5 5.2-2.2 7.7 -5.2 20.7-6.6 42.4-3.1 63.2 1.7 10.4 4.7 20.6 9.1 30 2.2 4.7 4.8 9.3 8.1 13.4 1.6 2.1 3.4 4 5.3 5.7 2 1.7 4.1 3.2 6.6 4.1 -2.3-1.1-4.2-2.8-5.9-4.7 -1.7-1.9-3.2-3.9-4.5-6.1 -2.6-4.3-4.6-8.9-6.2-13.7 -3.2-9.5-4.9-19.5-5.3-29.5 -1-19.9 2.6-39.8 9.6-58.1 0.9-2.3 1.8-4.6 2.8-6.8l3.1-6.9c1.1-2.4 2.2-4.8 3.2-7.3 1-2.5 2-4.9 2.9-7.4 3.7-9.9 6.8-20.1 9.5-30.3 0.9-3.6 1.8-7.1 2.6-10.7 37.5 1.2 92.2 1.8 151.7-1.5 3.1 17.6 7.5 37.8 13.8 60.6C371.2 287 369.1 328.3 351.2 356.1z"/><path d="M271.4 453.2v-34.7c7.8-0.8 12.5-2 13.7-2.2 38-6.2 65.8-22.8 82.9-49.3 21-32.8 24-79.5 8.6-135.2 -26.3-95.2-18.7-143-18.6-143.4 0.2-1.2-0.1-2.5-0.9-3.5s-2-1.5-3.2-1.5H146.3c-1.2 0-2.4 0.6-3.2 1.5 -0.8 1-1.1 2.2-0.9 3.5 0.1 0.5 7.8 47.9-18.6 143.4 -15.4 55.7-12.4 102.5 8.6 135.2 17.1 26.6 45 43.2 83.1 49.4 4.7 0.8 9.2 1.4 13.5 1.8v35.1c0 0.2 0 0.4 0 0.6 0.1 0.4 1.1 9.5-7.2 20.4 -14.4 19-45 27.9-68.2 32 -4.9 0.9-8.4 5.2-8.4 10.2 0 5 4 9 8.9 9.2 30.8 3.4 62.5 4.5 91 4.5 54.9 0 98.2-4.1 101.5-4.5 5-0.1 8.9-4.2 8.9-9.2 0-5-3.5-9.3-8.4-10.2 -23.2-4.1-53.8-13.1-68.2-32 -8.3-10.9-7.2-20-7.2-20.4C271.3 453.6 271.4 453.4 271.4 453.2zM139.3 362.3c-19.7-30.7-22.3-75-7.5-128.4 14-50.8 18.4-87.9 19.6-110.1 0.8-15.7 0.3-26.3-0.2-32h197.8c-0.5 5.7-1.1 16.4-0.2 32.1 1.2 22.2 5.6 59.4 19.6 110.1 14.8 53.3 12.1 97.7-7.5 128.4 -15.7 24.5-41.7 39.8-77.3 45.6 -0.1 0-0.3 0.1-0.4 0.1 -0.2 0.1-25.5 6.6-66.5-0.1C181 402.1 155 386.8 139.3 362.3zM345.2 514.6c0.8 0.2 1.4 0.9 1.4 1.8 0 0.4-0.3 0.7-0.7 0.7 -0.1 0-0.3 0-0.4 0 -1 0.1-99.8 10-191.1 0 -0.1 0-0.3 0-0.5 0 -0.4 0-0.7-0.3-0.7-0.7 0-0.9 0.6-1.7 1.4-1.8 3-0.5 5.9-1.1 8.7-1.7 11.5 0.7 22.9 1 34.3 1.2 11.6 0.2 23.1 0.3 34.6 0.1 5.8 0 11.5-0.2 17.3-0.3 5.8-0.2 11.5-0.3 17.3-0.6 11.5-0.4 23-1.2 34.5-2.1 -11.5 0.2-23 0.2-34.5 0 -5.7-0.1-11.5-0.3-17.2-0.4 -5.7-0.2-11.5-0.4-17.2-0.7 -11.5-0.6-22.9-1.3-34.4-2.2 -4-0.3-8.1-0.7-12.1-1 19.8-6.8 34.2-16.2 42.8-28.1 9.1-12.5 8.6-23.4 8.3-25.6v-33.5h13.9c0.5 0 1.1 0 1.6 0 0.6 0 1.2 0 1.8 0h8.5v33.5c-0.2 2.2-0.8 13.2 8.3 25.6C283.9 495.9 308.8 508 345.2 514.6z"/></g></svg>