<svg xmlns="http://www.w3.org/2000/svg" viewBox="0 0 500 530"><style type="text/css">
	.beerFill{fill:#F9B53D;}
	.st0{fill:none;stroke:#000000;stroke-width:10.5726;stroke-linecap:round;stroke-linejoin:round;stroke-miterlimit:10;}
	.st1{fill:none;stroke:#000000;stroke-width:7.4008;stroke-linecap:round;stroke-linejoin:round;stroke-miterlimit:10;}
	.st2{stroke:#FFFFFF;stroke-width:3.1718;stroke-miterlimit:10;}
	.st3{fill:#FFFFFF;}
</style><g id="la-bamba"><rect x="37" y="85.3" class="beerFill" width="426" height="426"/><path class="st3" d="M0 0v530h500V0H0zM335 471.9c-1.2 14.2-11.9 25.8-25.9 28.3 -16.9 3-38.8 5.6-63.2 5.6 -18.8 0-37-1.6-54.1-4.7 -13.9-2.5-24.5-14-25.7-28.1l-25.6-296.9c4.5 0.5 9.6 0.9 15.2 1.4l22.2 182.7 5.1-180.8c43.1 2.4 104.7 3 177.8-3.7L335 471.9z"/><path d="M413.2 23.9c-32-27-81.6-26.4-112.6 1.5 -4.5 4.1-4.6 5.1-0.4 9.6 9.5 10.2 19 20.3 28.5 30.5 -45 1.1-114.1 1.5-204.8-2 -3.9-0.2-7.8 1.4-10.5 4.3 -2.7 2.9-4.1 6.8-3.8 10.7l36.5 422c0.7 8.6 6.8 15.9 15 18.3 29.2 8.5 58.5 11.4 84.9 11.4 41.4 0 76-7.2 93.5-11.6 8.6-2.2 14.9-9.6 15.6-18.4L387.1 128c7.1 7.6 14.2 15.2 21.3 22.8 6.3 6.7 6.8 6.7 13.2-0.1 0.3-0.3 0.7-0.7 1-1C455.8 111.6 451.7 56.4 413.2 23.9zM383.1 77.7l-36.4 421.6c-0.5 5.3-4.2 9.7-9.3 11 -28 7.1-101.1 21.4-174 0.3 -4.9-1.4-8.5-5.8-9-11h0L117.9 77.6c-0.1-1.6 0.4-3.1 1.5-4.2 1.1-1.1 2.5-1.7 4.2-1.7 135.2 5.2 222.7 1.9 254.1 0.2 1.6-0.1 3 0.5 4.1 1.6C382.7 74.7 383.2 76.1 383.1 77.7zM403.2 133.9c-5.1-5.4-10.1-10.8-15.2-16.2l1.6-18.6c5.4 0.5 10.9 1.1 16.3 1.3 1.6 0.1 4.3-1.6 4.8-3 0.9-2.9-1.4-4.1-4.1-4.3 -5.4-0.5-10.8-1-16.3-1.5l1.1-13.1c0.3-3.8-0.9-7.5-3.5-10.3 3.3-3.1 6.6-6.1 9.8-9.2 2-1.9 3.8-3.9 1.5-6.4 -2.4-2.7-4.7-1-6.9 1 -3.7 3.5-7.5 7-11.2 10.5 -1.3-0.3-2.7-0.5-4.1-0.4 -4.6 0.3-10.4 0.5-17.4 0.8 -0.2-7.1-0.3-14.2-0.5-21.3 -0.1-2.7-0.3-5.4-3.8-5.3 -3.5 0-3.8 2.7-3.7 5.4 0.2 7.2 0.3 14.4 0.5 21.5 -4 0.2-8.4 0.3-13 0.4 -7-7.4-13.8-14.8-20.7-22.1 21.8-20.6 61-18.8 83.5 3.8C425.8 70.8 426.5 109.4 403.2 133.9zM415 146.2c-2-2.1-3.9-4.2-6.2-6.6 27.8-31.3 22.4-71.1 1.7-94.7 -22.4-25.6-64.3-34.1-97.9-7.9 -2-2.1-4-4.3-6-6.4 25.5-23.2 73.6-28.8 106.8 3.8C444.8 65 445.4 116.7 415 146.2zM406.3 115.6c-0.5 1.1-2.4 1.3-4.4 0.5 -2-0.8-3.2-2.4-2.7-3.5s2.4-1.3 4.4-0.5S406.7 114.5 406.3 115.6zM340.5 47.1c-0.9 1.9-2.5 3.1-3.6 2.6 -1.1-0.5-1.2-2.5-0.3-4.4 0.9-1.9 2.5-3.1 3.6-2.6C341.2 43.2 341.4 45.2 340.5 47.1zM397.9 76.7c1.2 1.7 1.5 3.7 0.5 4.4 -1 0.7-2.7-0.1-4-1.9 -1.2-1.7-1.5-3.7-0.5-4.4C394.9 74.1 396.7 75 397.9 76.7zM377.2 47.3c0.4 1.1-1 2.6-3 3.2 -2 0.7-4 0.3-4.3-0.8 -0.4-1.1 1-2.6 3-3.2C374.9 45.8 376.8 46.2 377.2 47.3z"/></g></svg>
