<svg xmlns="http://www.w3.org/2000/svg" viewBox="0 0 500 530"><style type="text/css">  
	.beerFill{fill:#F9B53D;}
	.st0{fill:none;stroke:#000000;stroke-width:10.5726;stroke-linecap:round;stroke-linejoin:round;stroke-miterlimit:10;}
	.st1{fill:none;stroke:#000000;stroke-width:7.4008;stroke-linecap:round;stroke-linejoin:round;stroke-miterlimit:10;}
	.st2{stroke:#FFFFFF;stroke-width:3.1718;stroke-miterlimit:10;}
	.st3{fill:#FFFFFF;}
</style><g id="pint"><rect x="37" y="85.3" class="beerFill" width="426" height="426"/><path class="st3" d="M0 0v530h500V0H0zM335.7 473.1c-1.2 14.4-12 26.2-26.3 28.7 -17.2 3-39.3 5.7-64 5.7 -19.1 0-37.5-1.6-54.8-4.8 -14.1-2.6-24.8-14.2-26.1-28.5l-26-301c4.6 0.5 9.7 0.9 15.4 1.4l22.5 185.2 5.1-183.3c43.7 2.4 106.1 3.1 180.2-3.8L335.7 473.1z"/><path d="M245.4 530c-26.8 0-56.4-3-86.1-11.5 -8.3-2.4-14.4-9.9-15.2-18.5L107.2 72.2c-0.3-4 1-7.9 3.8-10.8 2.8-2.9 6.7-4.5 10.7-4.3 136.7 5.3 225.1 1.9 256.7 0.2 4-0.2 7.9 1.3 10.7 4.2 2.8 2.9 4.2 6.8 3.8 10.8l-36.9 427.3c-0.8 9-7.1 16.5-15.8 18.7C322.4 522.7 287.3 530 245.4 530zM121.1 65.5c-1.5 0-2.9 0.6-4 1.7 -1.1 1.2-1.6 2.7-1.5 4.3l36.9 427.7c0 0 0 0 0 0 0.5 5.2 4.1 9.7 9.1 11.1 73.9 21.4 148 6.9 176.4-0.3 5.2-1.3 9-5.8 9.5-11.2L384.4 71.6c0.1-1.6-0.4-3.1-1.5-4.2 -1.1-1.1-2.5-1.7-4.1-1.6 -31.8 1.7-120.4 5.1-257.5-0.2C121.2 65.5 121.2 65.5 121.1 65.5z"/></g></svg>