<?xml version="1.0" standalone="no"?>
<!DOCTYPE svg PUBLIC "-//W3C//DTD SVG 20010904//EN"
 "http://www.w3.org/TR/2001/REC-SVG-20010904/DTD/svg10.dtd">
<svg version="1.0" xmlns="http://www.w3.org/2000/svg"
 width="260.000000pt" height="260.000000pt" viewBox="0 0 260.000000 260.000000"
 preserveAspectRatio="xMidYMid meet">
<metadata>
Created by potrace 1.11, written by Peter Selinger 2001-2013
</metadata>
<g transform="translate(0.000000,260.000000) scale(0.100000,-0.100000)"
fill="#000000" stroke="none">
<path d="M1138 2449 c-138 -20 -287 -72 -413 -145 l-80 -46 -53 12 c-81 18
-143 0 -202 -60 -60 -59 -79 -125 -60 -205 12 -49 11 -55 -9 -83 -72 -101
-152 -323 -171 -474 -37 -294 45 -608 219 -838 63 -83 198 -214 279 -269 351
-238 804 -265 1182 -70 121 62 205 125 306 231 171 178 273 384 310 628 45
300 -35 622 -215 860 -62 82 -198 214 -276 267 -234 158 -546 232 -817 192z
m437 -173 c374 -111 643 -405 721 -787 25 -124 16 -343 -20 -464 -111 -374
-405 -643 -787 -721 -124 -25 -343 -16 -464 20 -374 111 -643 405 -721 787
-25 124 -16 343 20 464 33 113 117 282 137 276 8 -2 39 -6 69 -8 112 -9 217
81 228 196 2 27 0 63 -6 80 -11 30 -10 31 53 66 76 43 197 88 291 109 51 11
111 15 229 12 138 -3 172 -7 250 -30z"/>
<path d="M1156 1814 c-178 -57 -286 -227 -273 -429 7 -115 37 -187 106 -255
79 -78 134 -102 247 -108 111 -5 165 10 242 69 l54 40 -7 -43 c-23 -138 -93
-198 -242 -206 -92 -5 -160 11 -225 54 l-37 24 -45 -82 c-52 -96 -52 -99 43
-142 100 -45 174 -58 291 -54 99 3 112 6 182 41 93 45 166 121 200 205 23 56
23 65 26 475 l3 418 -113 -3 -113 -3 -3 -48 -3 -48 -37 32 c-78 69 -198 94
-296 63z m227 -198 c102 -42 144 -192 86 -308 -70 -139 -274 -128 -340 17 -21
46 -24 133 -6 183 15 41 62 91 102 108 39 17 117 18 158 0z"/>
</g>
</svg>
