<?xml version="1.0" encoding="utf-8"?>
<!-- Generator: Adobe Illustrator 22.1.0, SVG Export Plug-In . SVG Version: 6.00 Build 0)  -->
<svg version="1.1" id="Layer_1" xmlns="http://www.w3.org/2000/svg" xmlns:xlink="http://www.w3.org/1999/xlink" x="0px" y="0px"
	 viewBox="0 0 1920 1080" style="enable-background:new 0 0 1920 1080;" xml:space="preserve">
<style type="text/css">
	.st0{fill:#FFFFFF;}
</style>
<path class="st0" d="M1044.9,360.4c-28.1-35.2-63.5-52.8-106.3-52.8c-42.8,0-80.8,17-114,51.1c-33.2,34.1-49.8,77.8-49.8,131
	c0,53.3,16.1,95.8,48.5,127.7c32.3,31.9,72,47.8,119,47.8c47,0,86.3-17.6,118-52.8c0,39.7-10.7,68.6-32.1,86.9
	c-21.4,18.3-50.5,27.4-87.2,27.4c-36.8,0-71.6-12.5-104.6-37.4l-38.8,75.5c20.9,16,45.3,28.4,73.2,37.1c27.9,8.7,55.2,13,81.9,13
	c50.4,0,94-14.7,131-44.1c18.7-14.3,33.6-33.9,44.8-58.8c11.1-25,16.7-53.5,16.7-85.6V312.9h-100.3V360.4z M1022.2,554.9
	c-16,17.4-36.1,26.1-60.2,26.1c-24.1,0-44.5-8.8-61.2-26.4c-16.7-17.6-25.1-40.7-25.1-69.2c0-28.5,8.6-51,25.7-67.5
	c17.1-16.5,37.5-24.7,61.2-24.7c23.6,0,43.5,8.3,59.5,24.7c16,16.5,24.1,39.1,24.1,67.9C1046.2,514.5,1038.2,537.5,1022.2,554.9"/>
</svg>
