<?xml version="1.0" encoding="utf-8"?>
<!-- Generator: Adobe Illustrator 22.1.0, SVG Export Plug-In . SVG Version: 6.00 Build 0)  -->
<svg version="1.1" id="Layer_1" xmlns="http://www.w3.org/2000/svg" xmlns:xlink="http://www.w3.org/1999/xlink" x="0px" y="0px"
	 viewBox="0 0 1920 1080" style="enable-background:new 0 0 1920 1080;" xml:space="preserve">
<style type="text/css">
	.st0{fill:#FFFFFF;}
</style>
<path class="st0" d="M1018,32.9c-127.7-14.6-249.8,19.6-348,87.5c-10-5.1-21-8.7-32.9-10c-52.9-6-100.6,31.9-106.7,84.8
	c-2.2,19.5,1.6,38.3,9.9,54.6c-46.4,66.9-77.5,145.8-87.4,232.2c-32,279.6,169.5,533.1,449.1,565c279.6,32,533.1-169.5,565-449.1
	C1499,318.4,1297.6,64.9,1018,32.9 M1403.7,590.7c-28,244.6-249.8,420.9-494.4,393c-244.6-28-420.9-249.8-393-494.4
	c8.2-72.1,33.4-138.2,71-194.9c8.7,3.8,18,6.4,28,7.6c52.9,6,100.6-31.9,106.7-84.8c2-17.6-0.9-34.6-7.6-49.7
	c84.5-55.8,188.2-83.5,296.4-71.1C1255.4,124.3,1431.7,346.1,1403.7,590.7"/>
</svg>
