<?xml version="1.0" encoding="utf-8"?>
<!-- Generator: Adobe Illustrator 22.1.0, SVG Export Plug-In . SVG Version: 6.00 Build 0)  -->
<svg version="1.1" id="Layer_1" xmlns="http://www.w3.org/2000/svg" xmlns:xlink="http://www.w3.org/1999/xlink" x="0px" y="0px"
	 viewBox="0 0 321 111" style="enable-background:new 0 0 321 111;" xml:space="preserve">
<style type="text/css">
	.st0{clip-path:url(#SVGID_2_);fill:#28282B;}
	.st1{clip-path:url(#SVGID_4_);fill:#28282B;}
	.st2{clip-path:url(#SVGID_6_);fill:#28282B;}
	.st3{clip-path:url(#SVGID_8_);fill:#28282B;}
	.st4{clip-path:url(#SVGID_10_);fill:#28282B;}
	.st5{clip-path:url(#SVGID_12_);fill:#28282B;}
	.st6{clip-path:url(#SVGID_14_);fill:#28282B;}
	.st7{clip-path:url(#SVGID_16_);fill:#28282B;}
	.st8{clip-path:url(#SVGID_18_);fill:#28282B;}
	.st9{clip-path:url(#SVGID_20_);fill:#28282B;}
	.st10{clip-path:url(#SVGID_22_);fill:#28282B;}
	.st11{clip-path:url(#SVGID_24_);fill:#28282B;}
	.st12{clip-path:url(#SVGID_26_);fill:#28282B;}
	.st13{clip-path:url(#SVGID_28_);fill:#28282B;}
	.st14{clip-path:url(#SVGID_30_);fill:#28282B;}
	.st15{clip-path:url(#SVGID_32_);fill:#28282B;}
</style>
<g>
	<g>
		<defs>
			<rect id="SVGID_1_" x="-139" y="-248" width="600" height="600"/>
		</defs>
		<clipPath id="SVGID_2_">
			<use xlink:href="#SVGID_1_"  style="overflow:visible;"/>
		</clipPath>
		<path class="st0" d="M41.8,57.3c-4,4.4-8.9,6.6-14.8,6.6c-5.9,0-10.9-2-14.9-6C8,53.9,6,48.6,6,41.9s2.1-12.1,6.2-16.4
			c4.2-4.3,8.9-6.4,14.3-6.4c5.4,0,9.8,2.2,13.3,6.6v-6h12.6V59c0,4-0.7,7.6-2.1,10.7c-1.4,3.1-3.3,5.6-5.6,7.4
			c-4.6,3.7-10.1,5.5-16.4,5.5c-3.4,0-6.8-0.5-10.3-1.6s-6.5-2.6-9.2-4.6l4.9-9.5c4.1,3.1,8.5,4.7,13.1,4.7s8.3-1.1,10.9-3.4
			C40.4,65.9,41.8,62.3,41.8,57.3 M40,41.5c0-3.6-1-6.4-3-8.5s-4.5-3.1-7.5-3.1s-5.5,1-7.7,3.1c-2.1,2.1-3.2,4.9-3.2,8.5
			s1,6.5,3.1,8.7s4.6,3.3,7.7,3.3c3,0,5.5-1.1,7.5-3.3C39,48,40,45.1,40,41.5"/>
	</g>
	<g>
		<defs>
			<rect id="SVGID_3_" x="-139" y="-248" width="600" height="600"/>
		</defs>
		<clipPath id="SVGID_4_">
			<use xlink:href="#SVGID_3_"  style="overflow:visible;"/>
		</clipPath>
		<path class="st1" d="M88,30.9c-3.7,0-6.5,1.3-8.4,4c-1.8,2.7-2.8,6.2-2.8,10.5V65H64.2V19.9h12.6v5.9c1.6-1.8,3.6-3.4,6.1-4.7
			c2.4-1.3,4.9-2,7.4-2l0.1,11.8L88,30.9L88,30.9z"/>
	</g>
	<g>
		<defs>
			<rect id="SVGID_5_" x="-139" y="-248" width="600" height="600"/>
		</defs>
		<clipPath id="SVGID_6_">
			<use xlink:href="#SVGID_5_"  style="overflow:visible;"/>
		</clipPath>
		<path class="st2" d="M136.6,65h-11.8v-5.4c-3.2,4.1-7.2,6.1-12,6.1c-4.8,0-8.8-1.4-12-4.1c-3.2-2.8-4.9-6.5-4.9-11.1
			s1.7-8.1,5-10.3c3.4-2.3,7.9-3.4,13.7-3.4h9.4v-0.3c0-4.8-2.5-7.2-7.6-7.2c-2.2,0-4.5,0.4-6.9,1.3s-4.5,1.9-6.2,3.2l-5.6-8.1
			c5.9-4.3,12.7-6.5,20.3-6.5c5.5,0,9.9,1.4,13.4,4.1s5.2,7.1,5.2,13L136.6,65L136.6,65z M124,47.8v-2.2h-7.9c-5,0-7.5,1.6-7.5,4.7
			c0,1.6,0.6,2.9,1.8,3.7c1.2,0.9,2.9,1.3,5.2,1.3c2.2,0,4.2-0.7,5.9-2.1C123.1,51.9,124,50.1,124,47.8"/>
	</g>
	<g>
		<defs>
			<rect id="SVGID_7_" x="-139" y="-248" width="600" height="600"/>
		</defs>
		<clipPath id="SVGID_8_">
			<use xlink:href="#SVGID_7_"  style="overflow:visible;"/>
		</clipPath>
		<polygon class="st3" points="159.7,65 141.8,19.8 154.9,19.8 166.1,48.2 177.3,19.8 190.4,19.8 172.6,65 		"/>
	</g>
	<g>
		<defs>
			<rect id="SVGID_9_" x="-139" y="-248" width="600" height="600"/>
		</defs>
		<clipPath id="SVGID_10_">
			<use xlink:href="#SVGID_9_"  style="overflow:visible;"/>
		</clipPath>
		<path class="st4" d="M235.7,58.4c-5.1,4.8-11,7.2-17.9,7.2c-6.8,0-12.5-2.1-17-6.3c-4.5-4.2-6.7-9.9-6.7-17s2.3-12.7,6.8-16.9
			c4.6-4.2,9.9-6.3,16.1-6.3s11.5,1.9,15.8,5.6s6.5,8.9,6.5,15.4v6.7h-32.8c0.4,2.5,1.7,4.5,3.9,6c2.2,1.6,4.6,2.3,7.4,2.3
			c4.4,0,8-1.5,10.9-4.4L235.7,58.4z M223.6,31.7c-1.7-1.5-3.8-2.2-6.3-2.2s-4.8,0.8-6.8,2.3c-2.1,1.5-3.3,3.5-3.6,6.1h19.8
			C226.3,35.2,225.3,33.2,223.6,31.7"/>
	</g>
	<g>
		<defs>
			<rect id="SVGID_11_" x="-139" y="-248" width="600" height="600"/>
		</defs>
		<clipPath id="SVGID_12_">
			<use xlink:href="#SVGID_11_"  style="overflow:visible;"/>
		</clipPath>
		<rect x="248.4" y="2.8" class="st5" width="12.6" height="62.2"/>
	</g>
	<g>
		<defs>
			<rect id="SVGID_13_" x="-139" y="-248" width="600" height="600"/>
		</defs>
		<clipPath id="SVGID_14_">
			<use xlink:href="#SVGID_13_"  style="overflow:visible;"/>
		</clipPath>
		<path class="st6" d="M280.6,82.7c-4.4,0-8.6-1.8-12.5-5.4l5.7-9.3c2.1,2.1,4.3,3.1,6.5,3.1c1.2,0,2.2-0.6,3-1.7s1.3-2.4,1.3-3.6
			c0-1.3-5.8-16.6-17.4-45.9h13.4l11,28.1l11-28.1H316L295.1,73c-1.2,3.1-3.1,5.5-5.7,7.2C286.7,81.9,283.8,82.7,280.6,82.7"/>
	</g>
	<g>
		<defs>
			<rect id="SVGID_15_" x="-139" y="-248" width="600" height="600"/>
		</defs>
		<clipPath id="SVGID_16_">
			<use xlink:href="#SVGID_15_"  style="overflow:visible;"/>
		</clipPath>
		<path class="st7" d="M93.5,98.3c-0.2,0.5-0.5,1-0.9,1.4s-0.9,0.7-1.4,0.9c-0.5,0.2-1.1,0.3-1.7,0.3h-5.7V83h5.7
			c0.6,0,1.2,0.1,1.7,0.3c0.5,0.2,1,0.5,1.4,0.9s0.7,0.9,0.9,1.4s0.3,1.1,0.3,1.7v0.2c0,0.4-0.1,0.8-0.2,1.2
			c-0.1,0.4-0.3,0.7-0.5,1.1c-0.2,0.3-0.5,0.6-0.7,0.9c-0.3,0.3-0.6,0.5-0.9,0.7c0.4,0.2,0.7,0.4,0.9,0.7c0.3,0.3,0.5,0.6,0.7,0.9
			s0.4,0.7,0.5,1.1s0.2,0.8,0.2,1.2v1.2C93.8,97.2,93.7,97.7,93.5,98.3 M92.2,87.4c0-0.4-0.1-0.8-0.2-1.1c-0.1-0.3-0.4-0.7-0.6-0.9
			c-0.3-0.3-0.6-0.5-0.9-0.6c-0.3-0.1-0.7-0.2-1.1-0.2h-4v6.2h4c0.4,0,0.8-0.1,1.1-0.2c0.3-0.2,0.6-0.4,0.9-0.6
			c0.3-0.3,0.5-0.6,0.6-0.9s0.2-0.7,0.2-1.1V87.4z M92.2,95.1c0-0.4-0.1-0.8-0.2-1.1c-0.1-0.3-0.4-0.6-0.6-0.9
			c-0.3-0.3-0.6-0.5-0.9-0.6c-0.3-0.1-0.7-0.2-1.1-0.2h-4v7.1h4c0.4,0,0.8-0.1,1.1-0.2c0.3-0.2,0.6-0.4,0.9-0.6
			c0.3-0.3,0.5-0.6,0.6-0.9s0.2-0.7,0.2-1.1V95.1z"/>
	</g>
	<g>
		<defs>
			<rect id="SVGID_17_" x="-139" y="-248" width="600" height="600"/>
		</defs>
		<clipPath id="SVGID_18_">
			<use xlink:href="#SVGID_17_"  style="overflow:visible;"/>
		</clipPath>
		<path class="st8" d="M108.6,101l-4.9-7.7h-2.2v7.7H100V83h5.7c0.6,0,1.2,0.1,1.7,0.3c0.5,0.2,1,0.5,1.4,0.9s0.7,0.9,0.9,1.4
			s0.3,1.1,0.3,1.7v1.4c0,0.6-0.1,1.2-0.3,1.7s-0.5,1-0.9,1.4s-0.9,0.7-1.4,0.9c-0.5,0.2-1.1,0.3-1.7,0.3l4.9,7.7h-2V101z
			 M108.4,87.4c0-0.4-0.1-0.8-0.2-1.1c-0.1-0.3-0.4-0.7-0.6-0.9c-0.3-0.3-0.6-0.5-0.9-0.6c-0.3-0.2-0.7-0.2-1.1-0.2h-4v7.2h4
			c0.4,0,0.8-0.1,1.1-0.2c0.3-0.2,0.6-0.4,0.9-0.6c0.3-0.3,0.5-0.6,0.6-0.9s0.2-0.7,0.2-1.1V87.4z"/>
	</g>
	<g>
		<defs>
			<rect id="SVGID_19_" x="-139" y="-248" width="600" height="600"/>
		</defs>
		<clipPath id="SVGID_20_">
			<use xlink:href="#SVGID_19_"  style="overflow:visible;"/>
		</clipPath>
		<polygon class="st9" points="116.9,101 116.9,83 127,83 127,84.6 118.5,84.6 118.5,91.2 125.4,91.2 125.4,92.8 118.5,92.8 
			118.5,99.4 127,99.4 127,101 		"/>
	</g>
	<g>
		<defs>
			<rect id="SVGID_21_" x="-139" y="-248" width="600" height="600"/>
		</defs>
		<clipPath id="SVGID_22_">
			<use xlink:href="#SVGID_21_"  style="overflow:visible;"/>
		</clipPath>
		<polygon class="st10" points="145.4,101 144.5,101 141,87.5 141,86.8 140.9,87.5 137.5,101 136.6,101 131.9,83 133.5,83 137,96.7 
			137,97.3 137.1,96.7 140.5,83 141.4,83 144.9,96.7 144.9,97.3 145,96.7 148.5,83 150.1,83 		"/>
	</g>
	<g>
		<defs>
			<rect id="SVGID_23_" x="-139" y="-248" width="600" height="600"/>
		</defs>
		<clipPath id="SVGID_24_">
			<use xlink:href="#SVGID_23_"  style="overflow:visible;"/>
		</clipPath>
		<rect x="156" y="83" class="st11" width="1.6" height="17.9"/>
	</g>
	<g>
		<defs>
			<rect id="SVGID_25_" x="-139" y="-248" width="600" height="600"/>
		</defs>
		<clipPath id="SVGID_26_">
			<use xlink:href="#SVGID_25_"  style="overflow:visible;"/>
		</clipPath>
		<polygon class="st12" points="174.3,101 166.8,87.9 166.7,87.1 166.7,101 165,101 165,83 165.9,83 173.4,96.1 173.5,96.9 
			173.5,83 175.1,83 175.1,101 		"/>
	</g>
	<g>
		<defs>
			<rect id="SVGID_27_" x="-139" y="-248" width="600" height="600"/>
		</defs>
		<clipPath id="SVGID_28_">
			<use xlink:href="#SVGID_27_"  style="overflow:visible;"/>
		</clipPath>
		<path class="st13" d="M192.4,101h-0.5l-0.9-1.4c-0.4,0.5-0.9,0.9-1.4,1.2c-0.6,0.3-1.2,0.5-1.9,0.5h-0.9c-0.6,0-1.2-0.1-1.7-0.3
			c-0.5-0.2-1-0.5-1.4-0.9s-0.7-0.9-0.9-1.4c-0.2-0.5-0.3-1.1-0.3-1.7v-9.6c0-0.6,0.1-1.2,0.3-1.7c0.2-0.5,0.5-1,0.9-1.4
			s0.9-0.7,1.4-0.9c0.5-0.2,1.1-0.3,1.7-0.3h1.3c0.6,0,1.2,0.1,1.7,0.3c0.5,0.2,1,0.5,1.4,0.9s0.7,0.9,0.9,1.4
			c0.2,0.5,0.3,1.1,0.3,1.7v0.7l-1.6,0.2v-1c0-0.4-0.1-0.8-0.2-1.1c-0.2-0.3-0.4-0.6-0.6-0.9c-0.3-0.3-0.6-0.5-0.9-0.6
			c-0.3-0.2-0.7-0.2-1.1-0.2h-1.1c-0.4,0-0.8,0.1-1.1,0.2c-0.3,0.1-0.6,0.4-0.9,0.6c-0.3,0.3-0.5,0.6-0.6,0.9
			c-0.2,0.3-0.2,0.7-0.2,1.1v9.6c0,0.4,0.1,0.8,0.2,1.1c0.1,0.3,0.4,0.7,0.6,0.9c0.3,0.3,0.6,0.5,0.9,0.6s0.7,0.2,1.1,0.2h1.1
			c0.4,0,0.8-0.1,1.1-0.2c0.3-0.2,0.6-0.4,0.9-0.6c0.3-0.3,0.5-0.6,0.6-0.9s0.2-0.7,0.2-1.1v-3.7h-2.9v-1.5h4.5V101z"/>
	</g>
	<g>
		<defs>
			<rect id="SVGID_29_" x="-139" y="-248" width="600" height="600"/>
		</defs>
		<clipPath id="SVGID_30_">
			<use xlink:href="#SVGID_29_"  style="overflow:visible;"/>
		</clipPath>
		<path class="st14" d="M218.3,98.5c-0.2,0.5-0.5,1-0.9,1.4s-0.9,0.7-1.4,0.9c-0.5,0.2-1.1,0.3-1.7,0.3H213c-0.6,0-1.2-0.1-1.7-0.3
			c-0.5-0.2-1-0.5-1.4-0.9s-0.7-0.9-0.9-1.4c-0.2-0.5-0.3-1.1-0.3-1.7v-9.6c0-0.6,0.1-1.2,0.3-1.7c0.2-0.5,0.5-1,0.9-1.4
			s0.9-0.7,1.4-0.9c0.5-0.2,1.1-0.3,1.7-0.3h1.3c0.6,0,1.2,0.1,1.7,0.3c0.5,0.2,1,0.5,1.4,0.9s0.7,0.9,0.9,1.4
			c0.2,0.5,0.3,1.1,0.3,1.7v0.7l-1.6,0.2v-1c0-0.4-0.1-0.8-0.2-1.1c-0.2-0.3-0.4-0.6-0.6-0.9c-0.3-0.3-0.6-0.5-0.9-0.6
			s-0.7-0.2-1.1-0.2H213c-0.4,0-0.8,0.1-1.1,0.2c-0.3,0.2-0.6,0.4-0.9,0.6c-0.3,0.3-0.5,0.6-0.6,0.9c-0.2,0.3-0.2,0.7-0.2,1.1v9.6
			c0,0.4,0.1,0.8,0.2,1.1c0.1,0.3,0.4,0.6,0.6,0.9c0.3,0.3,0.6,0.5,0.9,0.6c0.3,0.2,0.7,0.2,1.1,0.2h1.1c0.4,0,0.8-0.1,1.1-0.2
			c0.3-0.1,0.6-0.4,0.9-0.6c0.3-0.3,0.5-0.6,0.6-0.9s0.2-0.7,0.2-1.1v-1l1.6,0.3v0.7C218.6,97.4,218.5,98,218.3,98.5"/>
	</g>
	<g>
		<defs>
			<rect id="SVGID_31_" x="-139" y="-248" width="600" height="600"/>
		</defs>
		<clipPath id="SVGID_32_">
			<use xlink:href="#SVGID_31_"  style="overflow:visible;"/>
		</clipPath>
		<path class="st15" d="M235,98.5c-0.2,0.5-0.5,1-0.9,1.4s-0.9,0.7-1.4,0.9c-0.5,0.2-1.1,0.3-1.7,0.3h-1.3c-0.6,0-1.2-0.1-1.7-0.3
			c-0.5-0.2-1-0.5-1.4-0.9s-0.7-0.9-0.9-1.4c-0.2-0.5-0.3-1.1-0.3-1.7v-9.6c0-0.6,0.1-1.2,0.3-1.7c0.2-0.5,0.5-1,0.9-1.4
			s0.9-0.7,1.4-0.9c0.5-0.2,1.1-0.3,1.7-0.3h1.3c0.6,0,1.2,0.1,1.7,0.3c0.5,0.2,1,0.5,1.4,0.9s0.7,0.9,0.9,1.4
			c0.2,0.5,0.3,1.1,0.3,1.7v9.6C235.3,97.4,235.2,98,235,98.5 M233.7,87.2c0-0.4-0.1-0.8-0.2-1.1c-0.1-0.3-0.4-0.6-0.6-0.9
			c-0.3-0.3-0.6-0.5-0.9-0.6c-0.3-0.2-0.7-0.2-1.1-0.2h-1.1c-0.4,0-0.8,0.1-1.1,0.2c-0.3,0.1-0.6,0.4-0.9,0.6
			c-0.3,0.3-0.5,0.6-0.6,0.9c-0.2,0.3-0.2,0.7-0.2,1.1v9.6c0,0.4,0.1,0.8,0.2,1.1c0.1,0.3,0.4,0.7,0.6,0.9c0.3,0.3,0.6,0.5,0.9,0.6
			s0.7,0.2,1.1,0.2h1.1c0.4,0,0.8-0.1,1.1-0.2c0.3-0.2,0.6-0.4,0.9-0.6c0.3-0.3,0.5-0.6,0.6-0.9c0.2-0.3,0.2-0.7,0.2-1.1V87.2z"/>
	</g>
</g>
</svg>
