<?xml version="1.0" encoding="utf-8"?>
<!-- Generator: Adobe Illustrator 22.1.0, SVG Export Plug-In . SVG Version: 6.00 Build 0)  -->
<svg version="1.1" id="Layer_1" xmlns="http://www.w3.org/2000/svg" xmlns:xlink="http://www.w3.org/1999/xlink" x="0px" y="0px"
	 viewBox="0 0 390 178" style="enable-background:new 0 0 390 178;" xml:space="preserve">
<style type="text/css">
	.st0{fill:#949494;}
</style>
<g>
	<path class="st0" d="M143.8,151.5c-1.7,1.9-3.8,2.8-6.4,2.8c-2.5,0-4.7-0.9-6.4-2.6c-1.7-1.7-2.6-4-2.6-6.9c0-2.9,0.9-5.2,2.7-7.1
		c1.8-1.8,3.8-2.8,6.1-2.8c2.3,0,4.2,0.9,5.7,2.8v-2.6h5.4v16.9c0,1.7-0.3,3.3-0.9,4.6c-0.6,1.3-1.4,2.4-2.4,3.2
		c-2,1.6-4.3,2.4-7.1,2.4c-1.4,0-2.9-0.2-4.4-0.7c-1.5-0.5-2.8-1.1-3.9-2l2.1-4.1c1.8,1.3,3.7,2,5.6,2c2,0,3.5-0.5,4.7-1.5
		C143.2,155.2,143.8,153.6,143.8,151.5 M143,144.6c0-1.5-0.4-2.8-1.3-3.7c-0.9-0.9-1.9-1.3-3.2-1.3c-1.3,0-2.4,0.4-3.3,1.3
		c-0.9,0.9-1.4,2.1-1.4,3.6c0,1.5,0.5,2.8,1.4,3.7c0.9,0.9,2,1.4,3.3,1.4c1.3,0,2.4-0.5,3.2-1.4C142.6,147.4,143,146.2,143,144.6"/>
	<path class="st0" d="M163.6,140.1c-1.6,0-2.8,0.6-3.6,1.7c-0.8,1.1-1.2,2.6-1.2,4.5v8.4h-5.4v-19.4h5.4v2.6c0.7-0.8,1.6-1.5,2.6-2
		c1-0.6,2.1-0.8,3.2-0.9l0,5.1H163.6z"/>
	<path class="st0" d="M184.5,154.7h-5.1v-2.3c-1.4,1.8-3.1,2.6-5.2,2.6c-2.1,0-3.8-0.6-5.2-1.8c-1.4-1.2-2.1-2.8-2.1-4.8
		c0-2,0.7-3.5,2.2-4.4c1.4-1,3.4-1.5,5.9-1.5h4v-0.1c0-2.1-1.1-3.1-3.3-3.1c-0.9,0-1.9,0.2-3,0.6c-1,0.4-1.9,0.8-2.6,1.4l-2.4-3.5
		c2.5-1.8,5.4-2.8,8.7-2.8c2.4,0,4.3,0.6,5.8,1.8c1.5,1.2,2.2,3,2.2,5.6V154.7z M179.1,147.4v-0.9h-3.4c-2.2,0-3.2,0.7-3.2,2
		c0,0.7,0.3,1.2,0.8,1.6c0.5,0.4,1.3,0.6,2.2,0.6c1,0,1.8-0.3,2.5-0.9C178.7,149.1,179.1,148.3,179.1,147.4"/>
	<polygon class="st0" points="194.4,154.7 186.8,135.3 192.4,135.3 197.2,147.5 202,135.3 207.6,135.3 200,154.7 	"/>
	<path class="st0" d="M227.1,151.9c-2.2,2.1-4.7,3.1-7.7,3.1c-2.9,0-5.4-0.9-7.3-2.7c-1.9-1.8-2.9-4.2-2.9-7.3c0-3,1-5.5,2.9-7.3
		c2-1.8,4.3-2.7,6.9-2.7c2.7,0,4.9,0.8,6.8,2.4c1.9,1.6,2.8,3.8,2.8,6.6v2.9h-14.1c0.2,1.1,0.7,1.9,1.7,2.6c0.9,0.7,2,1,3.2,1
		c1.9,0,3.5-0.6,4.7-1.9L227.1,151.9z M221.9,140.5c-0.7-0.6-1.7-0.9-2.7-0.9c-1.1,0-2,0.3-2.9,1c-0.9,0.6-1.4,1.5-1.5,2.6h8.5
		C223.1,142,222.6,141.1,221.9,140.5"/>
	<rect x="232.5" y="128" class="st0" width="5.4" height="26.7"/>
	<path class="st0" d="M246.4,162.4c-1.9,0-3.7-0.8-5.4-2.3l2.4-4c0.9,0.9,1.8,1.3,2.8,1.3c0.5,0,0.9-0.2,1.3-0.7
		c0.4-0.5,0.5-1,0.5-1.6c0-0.6-2.5-7.1-7.5-19.7h5.8l4.7,12.1l4.7-12.1h5.8l-9,22.8c-0.5,1.3-1.3,2.3-2.5,3.1
		C249,162,247.8,162.4,246.4,162.4"/>
	<path class="st0" d="M166,168.1c-0.1,0.2-0.2,0.4-0.4,0.6c-0.2,0.2-0.4,0.3-0.6,0.4c-0.2,0.1-0.5,0.1-0.7,0.1h-2.4v-7.7h2.4
		c0.3,0,0.5,0,0.7,0.1c0.2,0.1,0.4,0.2,0.6,0.4c0.2,0.2,0.3,0.4,0.4,0.6c0.1,0.2,0.1,0.5,0.1,0.7v0.1c0,0.2,0,0.4-0.1,0.5
		c0,0.2-0.1,0.3-0.2,0.5c-0.1,0.1-0.2,0.3-0.3,0.4c-0.1,0.1-0.3,0.2-0.4,0.3c0.2,0.1,0.3,0.2,0.4,0.3c0.1,0.1,0.2,0.2,0.3,0.4
		c0.1,0.1,0.2,0.3,0.2,0.5c0,0.2,0.1,0.3,0.1,0.5v0.5C166.1,167.6,166.1,167.9,166,168.1 M165.4,163.5c0-0.2,0-0.3-0.1-0.5
		c-0.1-0.1-0.2-0.3-0.3-0.4c-0.1-0.1-0.2-0.2-0.4-0.3c-0.1-0.1-0.3-0.1-0.5-0.1h-1.7v2.7h1.7c0.2,0,0.3,0,0.5-0.1
		c0.1-0.1,0.3-0.2,0.4-0.3c0.1-0.1,0.2-0.2,0.3-0.4c0.1-0.1,0.1-0.3,0.1-0.5V163.5z M165.4,166.8c0-0.2,0-0.3-0.1-0.5
		c-0.1-0.1-0.2-0.3-0.3-0.4c-0.1-0.1-0.2-0.2-0.4-0.3c-0.1-0.1-0.3-0.1-0.5-0.1h-1.7v3.1h1.7c0.2,0,0.3,0,0.5-0.1
		c0.1-0.1,0.3-0.2,0.4-0.3c0.1-0.1,0.2-0.2,0.3-0.4c0.1-0.1,0.1-0.3,0.1-0.5V166.8z"/>
	<path class="st0" d="M172.5,169.3l-2.1-3.3h-1v3.3h-0.7v-7.7h2.4c0.3,0,0.5,0,0.7,0.1c0.2,0.1,0.4,0.2,0.6,0.4
		c0.2,0.2,0.3,0.4,0.4,0.6c0.1,0.2,0.1,0.5,0.1,0.7v0.6c0,0.3,0,0.5-0.1,0.7c-0.1,0.2-0.2,0.4-0.4,0.6c-0.2,0.2-0.4,0.3-0.6,0.4
		c-0.2,0.1-0.5,0.1-0.7,0.1l2.1,3.3H172.5z M172.4,163.5c0-0.2,0-0.3-0.1-0.5c-0.1-0.1-0.2-0.3-0.3-0.4c-0.1-0.1-0.2-0.2-0.4-0.3
		c-0.1-0.1-0.3-0.1-0.5-0.1h-1.7v3.1h1.7c0.2,0,0.3,0,0.5-0.1c0.1-0.1,0.3-0.2,0.4-0.3c0.1-0.1,0.2-0.2,0.3-0.4
		c0.1-0.1,0.1-0.3,0.1-0.5V163.5z"/>
	<polygon class="st0" points="176.1,169.3 176.1,161.6 180.4,161.6 180.4,162.2 176.7,162.2 176.7,165.1 179.7,165.1 179.7,165.8 
		176.7,165.8 176.7,168.6 180.4,168.6 180.4,169.3 	"/>
	<polygon class="st0" points="188.3,169.3 187.9,169.3 186.4,163.5 186.4,163.2 186.4,163.5 184.9,169.3 184.5,169.3 182.5,161.6 
		183.2,161.6 184.7,167.4 184.7,167.7 184.7,167.4 186.2,161.6 186.6,161.6 188.1,167.4 188.1,167.7 188.1,167.4 189.6,161.6 
		190.3,161.6 	"/>
	<rect x="192.9" y="161.6" class="st0" width="0.7" height="7.7"/>
	<polygon class="st0" points="200.7,169.3 197.5,163.7 197.4,163.3 197.4,169.3 196.7,169.3 196.7,161.6 197.1,161.6 200.3,167.2 
		200.4,167.5 200.4,161.6 201.1,161.6 201.1,169.3 	"/>
	<path class="st0" d="M208.5,169.3h-0.2l-0.4-0.6c-0.2,0.2-0.4,0.4-0.6,0.5c-0.2,0.1-0.5,0.2-0.8,0.2H206c-0.3,0-0.5,0-0.7-0.1
		c-0.2-0.1-0.4-0.2-0.6-0.4c-0.2-0.2-0.3-0.4-0.4-0.6c-0.1-0.2-0.1-0.5-0.1-0.7v-4.1c0-0.3,0-0.5,0.1-0.7c0.1-0.2,0.2-0.4,0.4-0.6
		c0.2-0.2,0.4-0.3,0.6-0.4c0.2-0.1,0.5-0.1,0.7-0.1h0.5c0.3,0,0.5,0,0.7,0.1c0.2,0.1,0.4,0.2,0.6,0.4c0.2,0.2,0.3,0.4,0.4,0.6
		c0.1,0.2,0.1,0.5,0.1,0.7v0.3l-0.7,0.1v-0.4c0-0.2,0-0.3-0.1-0.5c-0.1-0.1-0.2-0.3-0.3-0.4c-0.1-0.1-0.2-0.2-0.4-0.3
		c-0.1-0.1-0.3-0.1-0.5-0.1h-0.5c-0.2,0-0.3,0-0.5,0.1c-0.1,0.1-0.3,0.2-0.4,0.3c-0.1,0.1-0.2,0.2-0.3,0.4c-0.1,0.1-0.1,0.3-0.1,0.5
		v4.1c0,0.2,0,0.3,0.1,0.5c0.1,0.1,0.2,0.3,0.3,0.4c0.1,0.1,0.2,0.2,0.4,0.3c0.1,0.1,0.3,0.1,0.5,0.1h0.5c0.2,0,0.3,0,0.5-0.1
		c0.1-0.1,0.3-0.2,0.4-0.3c0.1-0.1,0.2-0.2,0.3-0.4c0.1-0.1,0.1-0.3,0.1-0.5v-1.6h-1.2v-0.7h1.9V169.3z"/>
	<path class="st0" d="M219.6,168.2c-0.1,0.2-0.2,0.4-0.4,0.6c-0.2,0.2-0.4,0.3-0.6,0.4c-0.2,0.1-0.5,0.1-0.7,0.1h-0.5
		c-0.3,0-0.5,0-0.7-0.1c-0.2-0.1-0.4-0.2-0.6-0.4c-0.2-0.2-0.3-0.4-0.4-0.6c-0.1-0.2-0.1-0.5-0.1-0.7v-4.1c0-0.3,0-0.5,0.1-0.7
		c0.1-0.2,0.2-0.4,0.4-0.6c0.2-0.2,0.4-0.3,0.6-0.4c0.2-0.1,0.5-0.1,0.7-0.1h0.5c0.3,0,0.5,0,0.7,0.1c0.2,0.1,0.4,0.2,0.6,0.4
		c0.2,0.2,0.3,0.4,0.4,0.6c0.1,0.2,0.1,0.5,0.1,0.7v0.3l-0.7,0.1v-0.4c0-0.2,0-0.3-0.1-0.5c-0.1-0.1-0.2-0.3-0.3-0.4
		c-0.1-0.1-0.2-0.2-0.4-0.3c-0.1-0.1-0.3-0.1-0.5-0.1h-0.5c-0.2,0-0.3,0-0.5,0.1c-0.1,0.1-0.3,0.2-0.4,0.3c-0.1,0.1-0.2,0.2-0.3,0.4
		c-0.1,0.2-0.1,0.3-0.1,0.5v4.1c0,0.2,0,0.3,0.1,0.5c0.1,0.1,0.2,0.3,0.3,0.4c0.1,0.1,0.2,0.2,0.4,0.3c0.1,0.1,0.3,0.1,0.5,0.1h0.5
		c0.2,0,0.3,0,0.5-0.1c0.1-0.1,0.3-0.2,0.4-0.3c0.1-0.1,0.2-0.2,0.3-0.4c0.1-0.1,0.1-0.3,0.1-0.5v-0.4l0.7,0.1v0.3
		C219.8,167.8,219.7,168,219.6,168.2"/>
	<path class="st0" d="M226.8,168.2c-0.1,0.2-0.2,0.4-0.4,0.6c-0.2,0.2-0.4,0.3-0.6,0.4c-0.2,0.1-0.5,0.1-0.7,0.1h-0.5
		c-0.3,0-0.5,0-0.7-0.1c-0.2-0.1-0.4-0.2-0.6-0.4c-0.2-0.2-0.3-0.4-0.4-0.6c-0.1-0.2-0.1-0.5-0.1-0.7v-4.1c0-0.3,0-0.5,0.1-0.7
		c0.1-0.2,0.2-0.4,0.4-0.6c0.2-0.2,0.4-0.3,0.6-0.4c0.2-0.1,0.5-0.1,0.7-0.1h0.5c0.3,0,0.5,0,0.7,0.1c0.2,0.1,0.4,0.2,0.6,0.4
		c0.2,0.2,0.3,0.4,0.4,0.6c0.1,0.2,0.1,0.5,0.1,0.7v4.1C226.9,167.8,226.9,168,226.8,168.2 M226.2,163.4c0-0.2,0-0.3-0.1-0.5
		c-0.1-0.1-0.2-0.3-0.3-0.4c-0.1-0.1-0.2-0.2-0.4-0.3c-0.1-0.1-0.3-0.1-0.5-0.1h-0.5c-0.2,0-0.3,0-0.5,0.1c-0.1,0.1-0.3,0.2-0.4,0.3
		c-0.1,0.1-0.2,0.2-0.3,0.4c-0.1,0.1-0.1,0.3-0.1,0.5v4.1c0,0.2,0,0.3,0.1,0.5c0.1,0.1,0.2,0.3,0.3,0.4c0.1,0.1,0.2,0.2,0.4,0.3
		c0.1,0.1,0.3,0.1,0.5,0.1h0.5c0.2,0,0.3,0,0.5-0.1c0.1-0.1,0.3-0.2,0.4-0.3c0.1-0.1,0.2-0.2,0.3-0.4c0.1-0.1,0.1-0.3,0.1-0.5V163.4
		z"/>
	<rect y="103.5" class="st0" width="390" height="4.8"/>
	<rect y="55.1" class="st0" width="390" height="4.8"/>
	<rect y="30.8" class="st0" width="390" height="4.8"/>
	<rect y="6.6" class="st0" width="390" height="4.8"/>
	<path class="st0" d="M390,79.3H164.1c-1.1-4.3-5-7.5-9.6-7.5c-4.6,0-8.5,3.2-9.6,7.5H0v4.8h144.8c1.1,4.3,5,7.5,9.6,7.5
		c4.6,0,8.5-3.2,9.6-7.5H390V79.3z"/>
</g>
</svg>
