<?xml version="1.0" encoding="utf-8"?>
<!-- Generator: Adobe Illustrator 22.1.0, SVG Export Plug-In . SVG Version: 6.00 Build 0)  -->
<svg version="1.1" id="Layer_1" xmlns="http://www.w3.org/2000/svg" xmlns:xlink="http://www.w3.org/1999/xlink" x="0px" y="0px"
	 viewBox="0 0 600 600" style="enable-background:new 0 0 600 600;" xml:space="preserve">
<style type="text/css">
	.st0{clip-path:url(#SVGID_2_);fill:#28282B;}
</style>
<g>
	<defs>
		<rect id="SVGID_1_" width="600" height="600"/>
	</defs>
	<clipPath id="SVGID_2_">
		<use xlink:href="#SVGID_1_"  style="overflow:visible;"/>
	</clipPath>
	<path class="st0" d="M311.3,201.3c-24.8-2.8-48.6,3.8-67.7,17c-1.9-1-4.1-1.7-6.4-2c-10.3-1.2-19.6,6.2-20.8,16.5
		c-0.4,3.8,0.3,7.5,1.9,10.6c-9,13-15.1,28.4-17,45.2c-6.2,54.4,33,103.7,87.4,110c54.4,6.2,103.7-33,110-87.4
		C404.9,256.9,365.7,207.5,311.3,201.3 M386.3,309.9c-5.4,47.6-48.6,81.9-96.2,76.5c-47.6-5.4-81.9-48.6-76.5-96.2
		c1.6-14,6.5-26.9,13.8-37.9c1.7,0.7,3.5,1.2,5.4,1.5c10.3,1.2,19.6-6.2,20.8-16.5c0.4-3.4-0.2-6.7-1.5-9.7
		c16.4-10.9,36.6-16.2,57.7-13.8C357.5,219.1,391.8,262.3,386.3,309.9"/>
	<path class="st0" d="M316.5,265c-5.5-6.9-12.4-10.3-20.7-10.3c-8.3,0-15.7,3.3-22.2,10c-6.5,6.6-9.7,15.1-9.7,25.5
		c0,10.4,3.1,18.6,9.4,24.8c6.3,6.2,14,9.3,23.2,9.3c9.1,0,16.8-3.4,23-10.3c0,7.7-2.1,13.4-6.2,16.9c-4.2,3.6-9.8,5.3-17,5.3
		c-7.2,0-13.9-2.4-20.4-7.3l-7.5,14.7c4.1,3.1,8.8,5.5,14.2,7.2c5.4,1.7,10.7,2.5,15.9,2.5c9.8,0,18.3-2.9,25.5-8.6
		c3.6-2.8,6.5-6.6,8.7-11.4c2.2-4.9,3.3-10.4,3.3-16.7v-61h-19.5V265z M312.1,302.9c-3.1,3.4-7,5.1-11.7,5.1
		c-4.7,0-8.6-1.7-11.9-5.1c-3.3-3.4-4.9-7.9-4.9-13.5c0-5.5,1.7-9.9,5-13.1c3.3-3.2,7.3-4.8,11.9-4.8c4.6,0,8.5,1.6,11.6,4.8
		c3.1,3.2,4.7,7.6,4.7,13.2C316.8,295,315.2,299.5,312.1,302.9"/>
</g>
</svg>
